<svg xmlns="http://www.w3.org/2000/svg" x="0px" y="0px"
width="60" height="60"
viewBox="0 0 172 172"
style=" fill:#000000;"><g fill="none" fill-rule="nonzero" stroke="none" stroke-width="1" stroke-linecap="butt" stroke-linejoin="miter" stroke-miterlimit="10" stroke-dasharray="" stroke-dashoffset="0" font-family="none" font-weight="none" font-size="none" text-anchor="none" style="mix-blend-mode: normal"><path d="M0,172v-172h172v172z" fill="none"></path><path d="M86,172c-47.49649,0 -86,-38.50351 -86,-86v0c0,-47.49649 38.50351,-86 86,-86v0c47.49649,0 86,38.50351 86,86v0c0,47.49649 -38.50351,86 -86,86z" fill="#1abc9c"></path><g><path d="M110.80089,143.86196c2.50744,3.60288 -0.1375,8.45934 -4.41444,8.45934c-1.70447,0 -3.3803,-0.80783 -4.4259,-2.31178l-4.28839,-6.16761c-1.69874,-2.44069 -1.0943,-5.79807 1.34639,-7.49395c2.44069,-1.69874 5.79807,-1.0943 7.49395,1.34639z" fill="#cbe3fa"></path><path d="M72.95016,136.34796c2.44069,1.69588 3.04513,5.05326 1.34639,7.49395l-4.28839,6.16761c-1.69244,2.43439 -5.04867,3.05115 -7.49395,1.34639c-2.44355,-1.69588 -3.04513,-5.05326 -1.34639,-7.49395l4.28839,-6.16761c1.69588,-2.44069 5.05326,-3.04513 7.49395,-1.34639z" fill="#cbe3fa"></path><path d="M69.50541,135.39546c2.47163,-0.14839 3.47225,3.20326 1.34324,4.46744c-0.64226,0.38129 -1.21462,0.90294 -1.66838,1.5558c0,0 -4.40527,6.34064 -4.45913,6.42858c-1.35212,2.2012 -4.73499,1.16019 -4.49923,-1.41256c0.16901,-1.84513 0.71129,-2.23501 5.23459,-8.74036c1.02383,-1.47358 2.52577,-2.20751 4.04891,-2.29889z" fill="#eef7ff"></path><path d="M103.69453,149.0977c0.70041,1.01609 -0.77976,2.14076 -1.54262,1.1705c-0.14151,-0.1799 0.21972,0.33259 -4.47975,-6.42629c-2.6965,-3.87416 0.57809,-9.07409 5.19105,-8.40176c0.9462,0.13779 1.1281,1.42517 0.26384,1.83481c-2.81338,1.33321 -4.16321,5.04696 -2.12901,7.95344c1.18826,1.6976 2.05597,2.94 2.6965,3.86929z" fill="#eef7ff"></path><path d="M145.28279,91.94862v19.74896c0,3.79567 -3.07951,6.87518 -6.87518,6.87518h-3.72406v8.59398c0,2.53236 -2.0511,4.58345 -4.58345,4.58345h-14.03683c-2.53236,0 -4.58345,-2.0511 -4.58345,-4.58345v-8.59398h-50.99092v8.59398c0,2.53236 -2.0511,4.58345 -4.58345,4.58345h-14.03683c-2.53236,0 -4.58345,-2.0511 -4.58345,-4.58345v-8.59398h-3.72406c-3.79567,0 -6.87518,-3.07951 -6.87518,-6.87518v-19.74896c0,-7.44525 5.73218,-13.48108 12.80216,-13.48108h0.762c0.24063,-1.0456 9.02367,-39.26015 9.39608,-40.87581c0.75913,-3.29722 3.17691,-5.48582 6.09313,-6.26214c19.83203,-5.13633 40.6581,-5.13633 60.49013,0c3.15141,0.83734 5.40962,3.29092 6.09313,6.26214c0.82789,3.60374 8.56819,37.27207 9.39608,40.87581c8.68507,0 13.56416,6.67695 13.56416,13.48108z" fill="#cbe3fa"></path><path d="M134.68355,118.57275v8.59398c0,2.53236 -2.0511,4.58345 -4.58345,4.58345h-14.03683c-2.53236,0 -4.58345,-2.0511 -4.58345,-4.58345v-8.59398z" fill="#42434d"></path><path d="M60.48889,118.57275v8.59398c0,2.53236 -2.0511,4.58345 -4.58345,4.58345h-14.03683c-2.53236,0 -4.58345,-2.0511 -4.58345,-4.58345v-8.59398z" fill="#42434d"></path><path d="M132.48063,78.46753h-92.99255c-7.06998,0 -12.80216,6.03584 -12.80216,13.48108v19.74896c0,3.79567 3.07951,6.87518 6.87518,6.87518h104.84651c3.79567,0 6.87518,-3.07951 6.87518,-6.87518v-19.74896c0,-7.44525 -5.73218,-13.48108 -12.80216,-13.48108z" fill="#fe4f60"></path><path d="M103.45877,94.50962v5.15639c0,2.53236 -2.0511,4.58345 -4.58345,4.58345h-25.78193c-2.53236,0 -4.58345,-2.0511 -4.58345,-4.58345v-5.15639c0,-2.53236 2.0511,-4.58345 4.58345,-4.58345h25.78193c2.53236,0 4.58345,2.0511 4.58345,4.58345z" fill="#eef7ff"></path><path d="M40.4506,25.74062c2.32037,7.72312 -2.6097,14.14855 -5.74937,15.36316c-3.46337,1.34066 -11.23519,-0.48126 -14.59544,-7.48535c-2.39256,-4.9888 3.11961,-10.09019 7.90904,-7.31519c0.62507,0.36209 1.44551,0.04469 1.66351,-0.64426c1.66093,-5.24261 9.17722,-5.24061 10.77226,0.08164z" fill="#fe4f60"></path><path d="M132.947,78.47641c5.5414,0.20912 5.30907,8.54929 -0.23633,8.55272c-11.1779,0.00745 -34.4269,0.07992 -84.62832,0.03237c-7.06998,-0.00659 -12.80216,6.03584 -12.80216,13.48108v11.18334c0,5.58838 -8.59398,5.89948 -8.59398,-0.02836v-19.74896c0,-7.44525 5.73218,-13.48108 12.80216,-13.48108c-0.00029,0 93.30394,0.00315 93.45863,0.00888z" fill="#ff6d7a"></path><path d="M103.45877,94.50962v5.15639c0,2.5315 -2.05196,4.58345 -4.58345,4.58345h-8.86555c-2.07602,0 -3.08867,-2.54697 -1.56783,-3.9601c2.51145,-2.33355 4.301,-5.31853 5.2598,-8.68106c0.28274,-0.99117 1.1768,-1.68213 2.20751,-1.68213h2.96635c2.53121,0 4.58317,2.05224 4.58317,4.58345z" fill="#cbe3fa"></path><path d="M134.68355,118.57275v2.73575c0,1.26561 -1.02612,2.29173 -2.29173,2.29173h-18.62028c-1.26561,0 -2.29173,-1.02612 -2.29173,-2.29173v-2.73575z" fill="#2c2c33"></path><path d="M60.48889,118.57275v2.73575c0,1.26561 -1.02612,2.29173 -2.29173,2.29173h-18.62028c-1.26561,0 -2.29173,-1.02612 -2.29173,-2.29173v-2.73575z" fill="#2c2c33"></path><path d="M122.32685,37.61034c0.43743,1.90958 -1.21805,3.65301 -3.14511,3.30009c-3.53327,-0.64741 -7.28798,-1.14701 -11.16071,-1.47874c-25.09613,-2.14907 -47.95009,14.50806 -53.67969,39.03556h-14.09126c0.24063,-1.0456 9.02367,-39.26015 9.39608,-40.87581c0.75913,-3.29722 3.17691,-5.48582 6.09313,-6.26214c19.83203,-5.13633 40.6581,-5.13633 60.49013,0c5.57348,1.48132 6.27733,7.06568 6.09743,6.28105z" fill="#eef7ff"></path><path d="M149.34774,33.8075c3.9475,3.70114 4.14803,9.90313 0.44689,13.85062c-9.24139,9.86789 -23.20116,8.70885 -28.10517,4.77252c-5.24805,-4.20074 -8.93372,-17.52856 -1.49249,-28.46611c3.04227,-4.47746 9.13826,-5.64051 13.61286,-2.59538c3.07865,2.08805 4.58345,5.62418 4.23482,9.08555c-0.08451,0.83934 0.71101,1.47616 1.51168,1.21032c3.30037,-1.09602 7.07886,-0.40163 9.7914,2.14248z" fill="#fe4f60"></path><path d="M137.28266,25.51059c0.53684,1.24269 -0.2498,2.66299 -1.59304,2.83c-2.70109,0.33602 -5.24834,1.79041 -6.89867,4.21792c-3.7063,5.44801 -4.90258,11.92242 -3.84494,17.90268c0.32457,1.8351 -1.7652,3.15141 -3.22561,1.99409c-5.93271,-4.70148 -8.4579,-18.29772 -1.52343,-28.49075c4.52186,-6.65489 14.20871,-5.1137 17.08568,1.54606z" fill="#ff6d7a"></path><path d="M26.77472,38.82438c0.49759,0.5334 -0.15297,1.35298 -0.79265,1.00206c-2.3049,-1.26417 -4.47488,-3.28462 -5.87627,-6.208c-2.39514,-4.99453 3.12763,-10.09191 7.91419,-7.31204c0.48928,0.28417 0.41108,1.01925 -0.13206,1.17795c-3.18779,0.93245 -5.0418,4.60723 -3.48514,7.85289c0.64741,1.35069 1.45897,2.50801 2.37194,3.48715z" fill="#ff6d7a"></path><path d="M37.85923,22.47291c0.50504,0.29048 0.42569,1.0413 -0.13263,1.20803c-1.5452,0.46178 -2.74234,1.52915 -3.41295,2.86552c-0.489,0.97398 -1.59275,1.5346 -2.89101,1.05878c-1.32892,-0.48671 -1.89039,-2.05425 -1.13756,-3.25253c1.60335,-2.55069 4.94898,-3.38832 7.57416,-1.87979z" fill="#ff6d7a"></path><path d="M141.0451,81.66105c-1.00378,0.77088 -1.19284,2.20951 -0.42196,3.21329c1.52715,1.98893 2.36821,4.50181 2.36821,7.07542v19.74781c0,2.52749 -2.05625,4.58345 -4.58345,4.58345h-32.43538c-1.26561,0 -2.29173,1.02612 -2.29173,2.29173c0,1.26561 1.02612,2.29173 2.29173,2.29173h3.21587v6.30225c0,3.79109 3.08409,6.87518 6.87518,6.87518h14.03683c3.79109,0 6.87518,-3.08409 6.87518,-6.87518v-6.30225h1.43233c5.05469,0 9.16691,-4.11222 9.16691,-9.16691v-19.74781c0,-3.57767 -1.17766,-7.08172 -3.31613,-9.86703c-0.77088,-1.00349 -2.20951,-1.19256 -3.21357,-0.42168zM132.39182,127.16673c0,1.2636 -1.02813,2.29173 -2.29173,2.29173h-14.03683c-1.2636,0 -2.29173,-1.02813 -2.29173,-2.29173v-6.30225h18.62028zM105.7505,94.50962c0,-3.79109 -3.08409,-6.87518 -6.87518,-6.87518h-25.78193c-3.79109,0 -6.87518,3.08409 -6.87518,6.87518v5.15639c0,3.79109 3.08409,6.87518 6.87518,6.87518h25.78193c3.79109,0 6.87518,-3.08409 6.87518,-6.87518zM101.16705,99.66601c0,1.2636 -1.02813,2.29173 -2.29173,2.29173h-25.78193c-1.2636,0 -2.29173,-1.02813 -2.29173,-2.29173v-5.15639c0,-1.2636 1.02813,-2.29173 2.29173,-2.29173h25.78193c1.2636,0 2.29173,1.02813 2.29173,2.29173zM18.03981,34.61161c-3.08839,-6.43546 3.27144,-13.35962 9.94982,-10.84359c0.9631,-1.88695 2.66528,-3.36855 4.78312,-4.00221c1.21232,-0.36295 2.48967,0.326 2.85263,1.53861c0.36295,1.21261 -0.326,2.48967 -1.53861,2.85263c-1.42545,0.42655 -2.40402,1.76635 -2.37967,3.25798c0.03438,2.12243 -2.60397,3.14826 -4.01052,1.55265c-0.9863,-1.11922 -2.61257,-1.45095 -3.9538,-0.80611c-1.66523,0.79924 -2.36936,2.80307 -1.57069,4.46715c2.90247,6.04787 9.51783,7.18514 11.7027,6.33949c2.18488,-0.84593 6.31113,-6.14183 4.38207,-12.56783c-0.3641,-1.21232 0.32371,-2.48996 1.53603,-2.85377c1.2129,-0.36381 2.48996,0.32399 2.85377,1.53603c2.4871,8.28488 -2.31464,16.30105 -7.11724,18.16022c-4.85101,1.87721 -13.69679,-0.72848 -17.4896,-8.63122zM140.3762,29.0917c-0.38787,-11.7219 -15.53333,-16.03865 -22.07506,-6.41684c-1.28881,1.89554 -2.31751,3.92057 -3.07292,6.04185c-19.69453,-4.82237 -40.4252,-4.69202 -60.0633,0.39475c-3.88276,1.00578 -6.85255,4.05836 -7.75091,7.96633l-7.19946,31.31759c-0.2836,1.23352 0.48642,2.46332 1.71994,2.74692c1.23352,0.28331 2.46332,-0.48642 2.74692,-1.71994l7.19946,-31.31731c0.51363,-2.23501 2.21266,-3.98102 4.43335,-4.55624c19.41093,-5.02776 39.93048,-5.02776 59.34026,0c0.46637,0.12089 1.51225,0.58668 2.57991,-0.29821c1.28881,-1.06966 0.62306,-3.24136 3.85726,-7.99841c2.32782,-3.42384 7.00724,-4.31618 10.43194,-1.9875c2.76354,1.87578 3.95352,5.40389 2.89416,8.57937c-0.67234,2.01529 1.53689,3.78565 3.35709,2.68791c2.86695,-1.72796 6.56952,-1.33808 9.00505,0.94906c3.01964,2.83057 3.17404,7.59077 0.34405,10.61127c-9.10847,9.72065 -21.73846,7.16222 -25.0016,4.54936c-1.58673,-1.27048 -3.05573,-3.78507 -3.93031,-6.72651c-0.36066,-1.21318 -1.63715,-1.90414 -2.84976,-1.54348c-1.21318,0.36066 -1.90414,1.63658 -1.54376,2.84976c1.1473,3.85927 3.13709,7.13902 5.45889,8.99818c1.00721,0.8064 2.38311,1.53087 4.01826,2.10008l4.56483,19.85638h-89.35243c-8.32269,0 -15.09389,7.07628 -15.09389,15.77396v19.74781c0,5.05469 4.11222,9.16691 9.16691,9.16691h1.43233v6.30225c0,3.79109 3.08409,6.87518 6.87518,6.87518h14.03683c6.80614,0 8.98414,-9.16691 4.58345,-9.16691c-1.26561,0 -2.29173,1.02612 -2.29173,2.29173c0,1.2636 -1.02813,2.29173 -2.29173,2.29173h-14.03683c-1.2636,0 -2.29173,-1.02813 -2.29173,-2.29173v-6.30225h36.52784c0.10284,4.43965 -1.04732,8.84377 -3.45421,12.74487c-3.18178,-1.24011 -6.98461,-0.23232 -9.07667,2.77643l-4.28897,6.1679c-2.41634,3.47483 -1.55522,8.26769 1.91989,10.68432c3.48257,2.42178 8.26196,1.56382 10.68403,-1.91989l4.28897,-6.1679c1.85429,-2.66671 1.77666,-6.1086 0.07047,-8.65786c3.11875,-4.83411 4.54535,-10.26321 4.44022,-15.62786h10.59122c-0.10513,5.36465 1.32175,10.79375 4.44051,15.62786c-1.70619,2.54926 -1.78411,5.99115 0.07018,8.65786l4.28897,6.16818c1.48504,2.1356 3.85669,3.29579 6.31829,3.29579c6.07394,0 9.85643,-6.92503 6.28563,-12.05993l-4.28897,-6.16818c-2.09063,-3.00675 -5.89232,-4.0174 -9.07667,-2.77643c-4.902,-7.94513 -2.93341,-14.39376 -3.44504,-15.81234c-0.10427,-0.28876 -0.25553,-0.53569 -0.44861,-0.75111c-1.00005,-1.1175 1.93364,-0.76458 -61.86345,-0.76458c-2.5272,0 -4.58345,-2.05625 -4.58345,-4.58374v-19.74781c0,-6.17047 4.71494,-11.1905 10.51043,-11.1905c98.28673,0 92.94958,0.36524 93.95307,-0.78377c0.37756,-0.43084 0.57236,-0.98057 0.56806,-1.52715c-0.00344,-0.36954 0.26641,0.91411 -4.77825,-21.03003c8.05198,0.90495 16.28129,-1.83596 22.2372,-8.19206c7.95487,-8.48999 0.42683,-22.31999 -11.09139,-20.13511zM72.41504,142.53362l-4.28897,6.16818c-0.47152,0.67806 -1.17881,1.13211 -1.9918,1.27821c-2.70481,0.48613 -4.6482,-2.56244 -3.08581,-4.80919l4.28897,-6.16818c0.97771,-1.40597 2.9039,-1.74716 4.30415,-0.77346c1.39996,0.97341 1.74687,2.90448 0.77346,4.30444zM102.63977,137.72443c0.81299,0.1461 1.52027,0.60015 1.9918,1.27821l4.28925,6.16818c1.56296,2.2479 -0.38215,5.29504 -3.08581,4.80919c-0.81299,-0.1461 -1.52027,-0.60015 -1.9918,-1.27821l-4.28925,-6.16818c-1.57785,-2.2691 0.39761,-5.29131 3.08581,-4.80919zM46.73853,97.66075c1.26561,0 2.29173,1.02612 2.29173,2.29173c0,1.26561 -1.02612,2.29173 -2.29173,2.29173h-8.30751c-1.26561,0 -2.29173,-1.02612 -2.29173,-2.29173c0,-1.26561 1.02612,-2.29173 2.29173,-2.29173zM125.23018,102.2442c-1.26561,0 -2.29173,-1.02612 -2.29173,-2.29173c0,-1.26561 1.02612,-2.29173 2.29173,-2.29173h8.30751c1.26561,0 2.29173,1.02612 2.29173,2.29173c0,1.26561 -1.02612,2.29173 -2.29173,2.29173z" fill="#000000"></path></g></g></svg>